grf
version=1
nRows=16
nColumns=28
inDegrees=no
endheader
time	ground_force_1_vx	ground_force_1_vy	ground_force_1_vz	ground_force_1_px	ground_force_1_py	ground_force_1_pz	ground_moment_1_mx	ground_moment_1_my	ground_moment_1_mz	ground_force_2_vx	ground_force_2_vy	ground_force_2_vz	ground_force_2_px	ground_force_2_py	ground_force_2_pz	ground_moment_2_mx	ground_moment_2_my	ground_moment_2_mz	ground_force_3_vx	ground_force_3_vy	ground_force_3_vz	ground_force_3_px	ground_force_3_py	ground_force_3_pz	ground_moment_3_mx	ground_moment_3_my	ground_moment_3_mz
      1.35000000	      0.52470127	      0.77529800	      2.05967731	    293.02143426	  -1204.77347920	      1.93685337	      0.11789267	      0.42630143	    233.59023004	      1.57719259	     -4.64144813	      0.20576518	  -2032.42630136	   -423.02315503	      1.09399076	      0.59783874	      7.73181135	  -9264.82402969	     26.93644745	    -18.69228092	   -554.69520283	    454.48311658	   -145.19202834	      0.09716185	     -0.40166664	      2.95061380	   1436.77231446
      1.36000000	      0.57337160	      0.55124468	      1.45751703	    269.46493847	  -1237.40916738	      2.00830233	      0.08495917	      0.30721347	    168.33643909	      1.48696107	     -4.77016278	      1.23186188	      0.99690349	  -1600.70710131	      0.24238571	      0.10788879	      1.39531898	  -1671.97364827	     19.88859260	    -11.81941930	   -528.95507050	    454.31524994	   -141.22750331	      0.08897321	     -0.23916555	      1.75689263	    855.50155491
      1.37000000	      0.44704034	      0.39221808	      1.34528254	    253.21843350	  -1252.70886217	      2.04442382	      0.07591548	      0.27451136	    150.41744178	      1.57277591	     -4.98933040	      0.67633654	   -496.01278834	  -1088.84659501	      0.63747980	      0.22304612	      2.88464161	  -3456.58936863	     13.16019486	     -6.33732801	   -511.78010455	    454.41205045	   -135.92216626	      0.07810502	     -0.08791940	      0.64584948	    314.49004114
      1.38000000	      0.59170350	      0.48569110	      1.91009324	    295.39852579	  -1215.10142874	      1.95450213	      0.07852321	      0.28394093	    155.58434106	      1.42572516	     -5.02294148	      1.20665034	    -73.90015846	  -1436.88586497	      0.37426717	      0.12668292	      1.63838239	  -1963.23006815	      7.90463936	     -1.49892985	   -505.50098220	    453.99313107	   -131.12035831	      0.06812672	      0.06732413	     -0.49455811	   -240.82019745
      1.39000000	      0.68369851	      0.58887892	      1.36753919	    245.41392568	  -1277.58321205	      2.09375835	      0.08274596	      0.29921047	    163.95122721	      1.71142527	     -4.96116278	      1.04475902	   -191.00631206	  -1487.71579746	      0.32429125	      0.16044539	      2.07503022	  -2486.45356341	      5.95019527	      2.00775001	   -505.29062605	    453.52108978	   -125.78828311	      0.05704458	      0.16361314	     -1.20189014	   -585.24856127
      1.40000000	      0.68635474	      0.69446196	      1.74222343	    259.69444184	  -1293.83238740	      2.11620569	      0.09205547	      0.33287377	    182.39690285	      1.69510265	     -4.79722968	      0.46782138	   -751.63147355	  -1032.35634948	      0.66812832	      0.27729274	      3.58620982	  -4297.25990376	      8.00938929	      5.41910453	   -511.06899777	    452.37592730	   -120.34019364	      0.04553602	      0.16707866	     -1.22734764	   -597.64483820
      1.41000000	      0.50095297	      0.50872628	      1.90489623	    332.16173625	  -1280.46785333	      2.05524131	      0.06561786	      0.23727502	    130.01393437	      1.40901128	     -4.77521961	      0.82973081	   -252.35022488	  -1340.58181610	      0.44312119	      0.16432978	      2.12526691	  -2546.65084366	     12.71327846	      9.03325071	   -522.83062361	    450.72101590	   -114.66898601	      0.03342675	      0.13904421	     -1.02140860	   -497.36485299
      1.42000000	      0.51813015	      0.52232387	      2.18898688	    318.51471117	  -1256.85900585	      2.01904287	      0.05514411	      0.19940183	    109.26146551	      1.38737491	     -4.97006491	      0.92218977	   -280.19502505	  -1265.07032460	      0.50434134	      0.17654040	      2.28318602	  -2735.88111893	     18.13211022	     11.93102137	   -540.71157416	    449.08834605	   -110.23204303	      0.02385843	      0.12392218	     -0.91032324	   -443.27293384
      1.43000000	      0.48427402	      0.39756469	      2.18531152	    289.25567400	  -1218.14273405	      1.96315279	      0.08517075	      0.30797854	    168.75565758	      1.56732228	     -4.70552751	      1.44002241	     46.29463544	  -1570.97519433	      0.27012096	      0.08969156	      1.15997542	  -1389.96771934	     22.23339547	     14.95098775	   -562.93420748	    448.22546791	   -104.60735240	      0.01206611	      0.10289576	     -0.75586477	   -368.06090063
      1.44000000	      0.63537567	      0.61129411	      1.79547344	    286.06580309	  -1221.69649418	      1.97124832	      0.09506731	      0.34376463	    188.36450954	      1.49513424	     -4.87955217	      2.05292275	    195.60724395	  -1661.75806720	      0.20399437	      0.05898797	      0.76288781	   -914.14818498	     24.18624541	     17.50808266	   -589.37724593	    448.05689255	    -99.77511949	      0.00209532	      0.15559391	     -1.14298149	   -556.56357207
      1.45000000	      0.48465364	      0.53315327	      1.74258242	    276.00770027	  -1271.05193570	      2.06639815	      0.05503981	      0.19902467	    109.05480293	      1.53942684	     -4.83763597	      1.60395436	    133.69285725	  -1533.33332472	      0.30717400	      0.05879608	      0.76040605	   -911.17435546	     24.52857672	     21.48718234	   -620.40735331	    447.89041308	    -95.09441921	     -0.00756370	      0.28488714	     -2.09276014	  -1019.04892699
      1.46000000	      0.45201256	      0.63197394	      1.54723434	    258.65850779	  -1275.53682176	      2.08333917	      0.10508528	      0.37998974	    208.21391757	      1.63487886	     -4.73500613	      0.55382129	   -714.80197714	  -1335.01755459	      0.41792376	      0.29971526	      3.87619892	  -4644.74613442	     23.47718178	     26.62545995	   -656.83423705	    447.98177129	    -90.98964187	     -0.01596790	      0.37754111	     -2.77338938	  -1350.47463161
      1.47000000	      0.52154907	      0.50722354	      1.78447531	    292.45246312	  -1269.87560412	      2.05595170	      0.08815059	      0.31875367	    174.65984715	      1.79468225	     -4.74079233	      1.14388504	    -49.67115135	  -1478.63871136	      0.34098644	      0.10292137	      1.33107569	  -1594.99262520	     22.34945237	     31.50421303	   -694.74960224	    448.08396465	    -86.46465293	     -0.02523203	      0.53924011	     -3.96121849	  -1928.87631004
      1.48000000	      0.52820046	      0.76883788	      1.84980883	    273.22840866	  -1261.52466108	      2.05041361	      0.12131829	      0.43868852	    240.37768853	      1.67622020	     -4.40669605	      0.97659664	   -302.35563736	  -1236.55809614	      0.52670579	      0.14139198	      1.82861374	  -2191.17924481	     22.52466089	     37.09617178	   -732.53220139	    447.95250240	    -83.19827983	     -0.03197673	      0.61660520	     -4.52953676	  -2205.61329168
      1.49000000	      0.37953260	      0.54354550	      1.67869381	    271.03589562	  -1333.95358927	      2.18370274	      0.07059404	      0.25526897	    139.87365169	      1.58708007	     -4.48411960	      1.71881501	     42.55041673	  -1660.93042483	      0.19480865	      0.09354176	      1.20976975	  -1449.63493626	     25.43006471	     44.64951338	   -770.67894969	    447.74988301	    -79.35019359	     -0.03993596	      0.70171604	     -5.15475475	  -2510.05703509
      1.50000000	      0.36383762	      0.45332106	      2.21720039	    342.05869683	  -1225.98072664	      1.95080749	      0.06407620	      0.23170036	    126.95931894	      1.49859613	     -4.44833845	      1.69296739	     87.84243883	  -1482.33884376	      0.34677200	      0.06028982	      0.77972456	   -934.32321352	     31.34063955	     48.59895940	   -805.08317119	    446.60620195	    -75.02019119	     -0.04914796	      0.65878366	     -4.83937660	  -2356.48675194
